<?xml version="1.0" encoding="utf-8" standalone="no"?>
<!DOCTYPE svg PUBLIC "-//W3C//DTD SVG 1.1//EN"
  "http://www.w3.org/Graphics/SVG/1.1/DTD/svg11.dtd">
<svg xmlns:xlink="http://www.w3.org/1999/xlink" width="460.8pt" height="345.6pt" viewBox="0 0 460.8 345.6" xmlns="http://www.w3.org/2000/svg" version="1.1">
 <metadata>
  <rdf:RDF xmlns:dc="http://purl.org/dc/elements/1.1/" xmlns:cc="http://creativecommons.org/ns#" xmlns:rdf="http://www.w3.org/1999/02/22-rdf-syntax-ns#">
   <cc:Work>
    <dc:type rdf:resource="http://purl.org/dc/dcmitype/StillImage"/>
    <dc:date>2024-08-08T14:34:18.329162</dc:date>
    <dc:format>image/svg+xml</dc:format>
    <dc:creator>
     <cc:Agent>
      <dc:title>Matplotlib v3.6.2, https://matplotlib.org/</dc:title>
     </cc:Agent>
    </dc:creator>
   </cc:Work>
  </rdf:RDF>
 </metadata>
 <defs>
  <style type="text/css">*{stroke-linejoin: round; stroke-linecap: butt}</style>
 </defs>
 <g id="figure_1">
  <g id="patch_1">
   <path d="M 0 345.6 
L 460.8 345.6 
L 460.8 0 
L 0 0 
z
" style="fill: #ffffff"/>
  </g>
  <g id="axes_1">
   <g id="patch_2">
    <path d="M 330.370821 223.557083 
C 321.461621 229.607642 311.069477 233.116925 300.316063 233.706158 
C 289.562648 234.295391 278.849292 231.942582 269.332336 226.901683 
C 259.81538 221.860783 251.850007 214.319924 246.295959 205.093025 
C 240.74191 195.866126 237.806467 185.297546 237.806467 174.528 
C 237.806467 163.758454 240.74191 153.189874 246.295959 143.962975 
C 251.850007 134.736076 259.81538 127.195217 269.332336 122.154317 
C 278.849292 117.113418 289.562648 114.760609 300.316063 115.349842 
C 311.069477 115.939075 321.461621 119.448358 330.370821 125.498917 
C 324.858564 114.077399 317.459417 103.666834 308.485152 94.705884 
C 299.510887 85.744934 289.089347 78.361254 277.659656 72.865962 
C 266.229965 67.370671 253.954946 63.842052 241.351822 62.428789 
C 228.748698 61.015526 215.997006 61.737751 203.634056 64.565032 
C 191.271106 67.392313 179.473014 72.284375 168.736907 79.035084 
C 158.0008 85.785792 148.47962 94.298981 140.574554 104.215935 
C 132.669488 114.132889 126.493147 125.312337 122.305779 137.283219 
C 118.118412 149.2541 115.979668 161.845884 115.979668 174.528 
C 115.979668 187.210116 118.118412 199.8019 122.305779 211.772781 
C 126.493147 223.743663 132.669488 234.923111 140.574554 244.840065 
C 148.47962 254.757019 158.0008 263.270208 168.736907 270.020916 
C 179.473014 276.771625 191.271106 281.663687 203.634056 284.490968 
C 215.997006 287.318249 228.748698 288.040474 241.351822 286.627211 
C 253.954946 285.213948 266.229965 281.685329 277.659656 276.190038 
C 289.089347 270.694746 299.510887 263.311066 308.485152 254.350116 
C 317.459417 245.389166 324.858564 234.978601 330.370821 223.557083 
" clip-path="url(#p66eef03de3)" style="fill: #ff0000; opacity: 0.4"/>
   </g>
   <g id="patch_3">
    <path d="M 330.370821 125.498917 
C 337.750234 140.789226 341.583275 157.550095 341.583275 174.528 
C 341.583275 191.505905 337.750234 208.266774 330.370821 223.557083 
C 338.370738 218.12405 344.920663 210.814708 349.447082 202.269064 
C 353.973501 193.72342 356.340332 184.198393 356.340332 174.528 
C 356.340332 164.857607 353.973501 155.33258 349.447082 146.786936 
C 344.920663 138.241292 338.370738 130.93195 330.370821 125.498917 
" clip-path="url(#p66eef03de3)" style="fill: #008000; opacity: 0.4"/>
   </g>
   <g id="patch_4">
    <path d="M 330.370821 223.557083 
C 337.750234 208.266774 341.583275 191.505905 341.583275 174.528 
C 341.583275 157.550095 337.750234 140.789226 330.370821 125.498917 
C 321.461621 119.448358 311.069477 115.939075 300.316063 115.349842 
C 289.562648 114.760609 278.849292 117.113418 269.332336 122.154317 
C 259.81538 127.195217 251.850007 134.736076 246.295959 143.962975 
C 240.74191 153.189874 237.806467 163.758454 237.806467 174.528 
C 237.806467 185.297546 240.74191 195.866126 246.295959 205.093025 
C 251.850007 214.319924 259.81538 221.860783 269.332336 226.901683 
C 278.849292 231.942582 289.562648 234.295391 300.316063 233.706158 
C 311.069477 233.116925 321.461621 229.607642 330.370821 223.557083 
" clip-path="url(#p66eef03de3)" style="fill: #b25900; opacity: 0.4"/>
   </g>
   <g id="text_1">
    <!-- 2030 -->
    <g transform="translate(164.168068 177.287375) scale(0.1 -0.1)">
     <defs>
      <path id="DejaVuSans-32" d="M 1228 531 
L 3431 531 
L 3431 0 
L 469 0 
L 469 531 
Q 828 903 1448 1529 
Q 2069 2156 2228 2338 
Q 2531 2678 2651 2914 
Q 2772 3150 2772 3378 
Q 2772 3750 2511 3984 
Q 2250 4219 1831 4219 
Q 1534 4219 1204 4116 
Q 875 4013 500 3803 
L 500 4441 
Q 881 4594 1212 4672 
Q 1544 4750 1819 4750 
Q 2544 4750 2975 4387 
Q 3406 4025 3406 3419 
Q 3406 3131 3298 2873 
Q 3191 2616 2906 2266 
Q 2828 2175 2409 1742 
Q 1991 1309 1228 531 
z
" transform="scale(0.015625)"/>
      <path id="DejaVuSans-30" d="M 2034 4250 
Q 1547 4250 1301 3770 
Q 1056 3291 1056 2328 
Q 1056 1369 1301 889 
Q 1547 409 2034 409 
Q 2525 409 2770 889 
Q 3016 1369 3016 2328 
Q 3016 3291 2770 3770 
Q 2525 4250 2034 4250 
z
M 2034 4750 
Q 2819 4750 3233 4129 
Q 3647 3509 3647 2328 
Q 3647 1150 3233 529 
Q 2819 -91 2034 -91 
Q 1250 -91 836 529 
Q 422 1150 422 2328 
Q 422 3509 836 4129 
Q 1250 4750 2034 4750 
z
" transform="scale(0.015625)"/>
      <path id="DejaVuSans-33" d="M 2597 2516 
Q 3050 2419 3304 2112 
Q 3559 1806 3559 1356 
Q 3559 666 3084 287 
Q 2609 -91 1734 -91 
Q 1441 -91 1130 -33 
Q 819 25 488 141 
L 488 750 
Q 750 597 1062 519 
Q 1375 441 1716 441 
Q 2309 441 2620 675 
Q 2931 909 2931 1356 
Q 2931 1769 2642 2001 
Q 2353 2234 1838 2234 
L 1294 2234 
L 1294 2753 
L 1863 2753 
Q 2328 2753 2575 2939 
Q 2822 3125 2822 3475 
Q 2822 3834 2567 4026 
Q 2313 4219 1838 4219 
Q 1578 4219 1281 4162 
Q 984 4106 628 3988 
L 628 4550 
Q 988 4650 1302 4700 
Q 1616 4750 1894 4750 
Q 2613 4750 3031 4423 
Q 3450 4097 3450 3541 
Q 3450 3153 3228 2886 
Q 3006 2619 2597 2516 
z
" transform="scale(0.015625)"/>
     </defs>
     <use xlink:href="#DejaVuSans-32"/>
     <use xlink:href="#DejaVuSans-30" x="63.623047"/>
     <use xlink:href="#DejaVuSans-33" x="127.246094"/>
     <use xlink:href="#DejaVuSans-30" x="190.869141"/>
    </g>
   </g>
   <g id="text_2">
    <!-- 71 -->
    <g transform="translate(342.599303 177.287375) scale(0.1 -0.1)">
     <defs>
      <path id="DejaVuSans-37" d="M 525 4666 
L 3525 4666 
L 3525 4397 
L 1831 0 
L 1172 0 
L 2766 4134 
L 525 4134 
L 525 4666 
z
" transform="scale(0.015625)"/>
      <path id="DejaVuSans-31" d="M 794 531 
L 1825 531 
L 1825 4091 
L 703 3866 
L 703 4441 
L 1819 4666 
L 2450 4666 
L 2450 531 
L 3481 531 
L 3481 0 
L 794 0 
L 794 531 
z
" transform="scale(0.015625)"/>
     </defs>
     <use xlink:href="#DejaVuSans-37"/>
     <use xlink:href="#DejaVuSans-31" x="63.623047"/>
    </g>
   </g>
   <g id="text_3">
    <!-- 676 -->
    <g transform="translate(280.151121 177.287375) scale(0.1 -0.1)">
     <defs>
      <path id="DejaVuSans-36" d="M 2113 2584 
Q 1688 2584 1439 2293 
Q 1191 2003 1191 1497 
Q 1191 994 1439 701 
Q 1688 409 2113 409 
Q 2538 409 2786 701 
Q 3034 994 3034 1497 
Q 3034 2003 2786 2293 
Q 2538 2584 2113 2584 
z
M 3366 4563 
L 3366 3988 
Q 3128 4100 2886 4159 
Q 2644 4219 2406 4219 
Q 1781 4219 1451 3797 
Q 1122 3375 1075 2522 
Q 1259 2794 1537 2939 
Q 1816 3084 2150 3084 
Q 2853 3084 3261 2657 
Q 3669 2231 3669 1497 
Q 3669 778 3244 343 
Q 2819 -91 2113 -91 
Q 1303 -91 875 529 
Q 447 1150 447 2328 
Q 447 3434 972 4092 
Q 1497 4750 2381 4750 
Q 2619 4750 2861 4703 
Q 3103 4656 3366 4563 
z
" transform="scale(0.015625)"/>
     </defs>
     <use xlink:href="#DejaVuSans-36"/>
     <use xlink:href="#DejaVuSans-37" x="63.623047"/>
     <use xlink:href="#DejaVuSans-36" x="127.246094"/>
    </g>
   </g>
   <g id="text_4">
    <!-- Ctrl -->
    <g transform="translate(207.430847 305.051365) scale(0.12 -0.12)">
     <defs>
      <path id="DejaVuSans-43" d="M 4122 4306 
L 4122 3641 
Q 3803 3938 3442 4084 
Q 3081 4231 2675 4231 
Q 1875 4231 1450 3742 
Q 1025 3253 1025 2328 
Q 1025 1406 1450 917 
Q 1875 428 2675 428 
Q 3081 428 3442 575 
Q 3803 722 4122 1019 
L 4122 359 
Q 3791 134 3420 21 
Q 3050 -91 2638 -91 
Q 1578 -91 968 557 
Q 359 1206 359 2328 
Q 359 3453 968 4101 
Q 1578 4750 2638 4750 
Q 3056 4750 3426 4639 
Q 3797 4528 4122 4306 
z
" transform="scale(0.015625)"/>
      <path id="DejaVuSans-74" d="M 1172 4494 
L 1172 3500 
L 2356 3500 
L 2356 3053 
L 1172 3053 
L 1172 1153 
Q 1172 725 1289 603 
Q 1406 481 1766 481 
L 2356 481 
L 2356 0 
L 1766 0 
Q 1100 0 847 248 
Q 594 497 594 1153 
L 594 3053 
L 172 3053 
L 172 3500 
L 594 3500 
L 594 4494 
L 1172 4494 
z
" transform="scale(0.015625)"/>
      <path id="DejaVuSans-72" d="M 2631 2963 
Q 2534 3019 2420 3045 
Q 2306 3072 2169 3072 
Q 1681 3072 1420 2755 
Q 1159 2438 1159 1844 
L 1159 0 
L 581 0 
L 581 3500 
L 1159 3500 
L 1159 2956 
Q 1341 3275 1631 3429 
Q 1922 3584 2338 3584 
Q 2397 3584 2469 3576 
Q 2541 3569 2628 3553 
L 2631 2963 
z
" transform="scale(0.015625)"/>
      <path id="DejaVuSans-6c" d="M 603 4863 
L 1178 4863 
L 1178 0 
L 603 0 
L 603 4863 
z
" transform="scale(0.015625)"/>
     </defs>
     <use xlink:href="#DejaVuSans-43"/>
     <use xlink:href="#DejaVuSans-74" x="69.824219"/>
     <use xlink:href="#DejaVuSans-72" x="109.033203"/>
     <use xlink:href="#DejaVuSans-6c" x="150.146484"/>
    </g>
   </g>
   <g id="text_5">
    <!-- Ctrl-blind -->
    <g transform="translate(297.073399 251.516494) scale(0.12 -0.12)">
     <defs>
      <path id="DejaVuSans-2d" d="M 313 2009 
L 1997 2009 
L 1997 1497 
L 313 1497 
L 313 2009 
z
" transform="scale(0.015625)"/>
      <path id="DejaVuSans-62" d="M 3116 1747 
Q 3116 2381 2855 2742 
Q 2594 3103 2138 3103 
Q 1681 3103 1420 2742 
Q 1159 2381 1159 1747 
Q 1159 1113 1420 752 
Q 1681 391 2138 391 
Q 2594 391 2855 752 
Q 3116 1113 3116 1747 
z
M 1159 2969 
Q 1341 3281 1617 3432 
Q 1894 3584 2278 3584 
Q 2916 3584 3314 3078 
Q 3713 2572 3713 1747 
Q 3713 922 3314 415 
Q 2916 -91 2278 -91 
Q 1894 -91 1617 61 
Q 1341 213 1159 525 
L 1159 0 
L 581 0 
L 581 4863 
L 1159 4863 
L 1159 2969 
z
" transform="scale(0.015625)"/>
      <path id="DejaVuSans-69" d="M 603 3500 
L 1178 3500 
L 1178 0 
L 603 0 
L 603 3500 
z
M 603 4863 
L 1178 4863 
L 1178 4134 
L 603 4134 
L 603 4863 
z
" transform="scale(0.015625)"/>
      <path id="DejaVuSans-6e" d="M 3513 2113 
L 3513 0 
L 2938 0 
L 2938 2094 
Q 2938 2591 2744 2837 
Q 2550 3084 2163 3084 
Q 1697 3084 1428 2787 
Q 1159 2491 1159 1978 
L 1159 0 
L 581 0 
L 581 3500 
L 1159 3500 
L 1159 2956 
Q 1366 3272 1645 3428 
Q 1925 3584 2291 3584 
Q 2894 3584 3203 3211 
Q 3513 2838 3513 2113 
z
" transform="scale(0.015625)"/>
      <path id="DejaVuSans-64" d="M 2906 2969 
L 2906 4863 
L 3481 4863 
L 3481 0 
L 2906 0 
L 2906 525 
Q 2725 213 2448 61 
Q 2172 -91 1784 -91 
Q 1150 -91 751 415 
Q 353 922 353 1747 
Q 353 2572 751 3078 
Q 1150 3584 1784 3584 
Q 2172 3584 2448 3432 
Q 2725 3281 2906 2969 
z
M 947 1747 
Q 947 1113 1208 752 
Q 1469 391 1925 391 
Q 2381 391 2643 752 
Q 2906 1113 2906 1747 
Q 2906 2381 2643 2742 
Q 2381 3103 1925 3103 
Q 1469 3103 1208 2742 
Q 947 2381 947 1747 
z
" transform="scale(0.015625)"/>
     </defs>
     <use xlink:href="#DejaVuSans-43"/>
     <use xlink:href="#DejaVuSans-74" x="69.824219"/>
     <use xlink:href="#DejaVuSans-72" x="109.033203"/>
     <use xlink:href="#DejaVuSans-6c" x="150.146484"/>
     <use xlink:href="#DejaVuSans-2d" x="177.929688"/>
     <use xlink:href="#DejaVuSans-62" x="214.013672"/>
     <use xlink:href="#DejaVuSans-6c" x="277.490234"/>
     <use xlink:href="#DejaVuSans-69" x="305.273438"/>
     <use xlink:href="#DejaVuSans-6e" x="333.056641"/>
     <use xlink:href="#DejaVuSans-64" x="396.435547"/>
    </g>
   </g>
  </g>
 </g>
 <defs>
  <clipPath id="p66eef03de3">
   <rect x="95.725472" y="41.472" width="280.869056" height="266.112"/>
  </clipPath>
 </defs>
</svg>
